<?xml version="1.0" standalone="no"?>
<!DOCTYPE svg PUBLIC "-//W3C//DTD SVG 20010904//EN"
 "http://www.w3.org/TR/2001/REC-SVG-20010904/DTD/svg10.dtd">
<svg version="1.0" xmlns="http://www.w3.org/2000/svg"
 width="260.000000pt" height="260.000000pt" viewBox="0 0 260.000000 260.000000"
 preserveAspectRatio="xMidYMid meet">
<metadata>
Created by potrace 1.14, written by Peter Selinger 2001-2017
</metadata>
<g transform="translate(0.000000,260.000000) scale(0.100000,-0.100000)"
fill="#000000" stroke="none">
<path d="M327 2375 c-5 -13 -1 -301 7 -550 7 -206 11 -278 21 -450 4 -55 8
-125 10 -155 4 -58 13 -162 20 -220 2 -19 7 -66 10 -103 4 -37 8 -76 10 -86 2
-9 6 -51 10 -92 3 -41 8 -81 10 -89 2 -8 6 -35 9 -60 5 -41 12 -93 21 -146 2
-12 7 -48 11 -80 5 -45 14 -65 39 -92 l32 -36 359 0 c197 -1 371 0 386 2 15 3
38 15 51 28 24 23 26 24 67 9 24 -8 55 -17 69 -20 14 -3 37 -7 51 -10 14 -3
63 -6 110 -6 344 0 627 262 643 596 8 166 -58 330 -183 454 -41 42 -97 87
-123 100 -26 13 -47 27 -47 30 0 3 26 19 58 36 91 46 191 154 240 255 22 47
43 100 47 119 l7 34 -83 -7 c-247 -19 -424 -125 -512 -306 -20 -41 -37 -72
-38 -67 -1 4 -3 25 -4 47 -4 58 -4 60 -13 60 -5 0 -8 -23 -7 -50 1 -28 -1 -53
-5 -55 -3 -2 -31 -6 -63 -9 l-57 -5 4 72 c17 275 28 839 17 854 -9 12 -1180
11 -1184 -2z"/>
</g>
</svg>
